<svg xmlns="http://www.w3.org/2000/svg" aria-hidden="true" style="position:absolute;width:0;height:0;overflow:hidden"><defs><symbol id="brand-company" viewBox="0 0 30 16"><path d="M7.655 12.678c.07.078.107.176.106.276.004.066-.009.131-.038.191s-.071.114-.126.158a.765.765 0 0 1-.475.128h-.836v-1.752h.819a.754.754 0 0 1 .454.116c.053.04.095.09.122.147s.04.119.036.181a.378.378 0 0 1-.095.268.452.452 0 0 1-.249.137.482.482 0 0 1 .282.15zm-.98-.264h.35a.355.355 0 0 0 .222-.058c.026-.021.047-.048.06-.078s.018-.062.015-.093c.002-.032-.003-.064-.016-.093s-.033-.056-.058-.078a.365.365 0 0 0-.229-.059h-.344v.46zm.606.671c.028-.022.05-.049.065-.08s.021-.064.018-.098c.002-.034-.004-.068-.019-.099s-.037-.059-.066-.081a.387.387 0 0 0-.238-.063h-.367v.482h.372a.4.4 0 0 0 .235-.061zM9.328 13.431l-.455-.685h-.171v.685H8.31v-1.752h.742a.785.785 0 0 1 .516.149c.104.095.166.22.176.353s-.033.265-.121.372a.625.625 0 0 1-.354.178l.485.7h-.426zm-.626-.923h.32c.222 0 .334-.088.334-.265a.242.242 0 0 0-.082-.197.372.372 0 0 0-.252-.071h-.324l.004.533zM11.469 13.079h-.781l-.138.353h-.411l.717-1.732h.444l.714 1.732h-.411l-.135-.353zm-.104-.266-.285-.74-.285.74h.57zM14.15 13.431h-.389l-.872-1.191v1.191h-.388v-1.752h.388l.872 1.198v-1.198h.389v1.752zM16.369 13.012a.805.805 0 0 1-.352.309 1.243 1.243 0 0 1-.547.11h-.692v-1.752h.692c.189-.004.377.033.547.108a.798.798 0 0 1 .352.306.937.937 0 0 1 0 .92zm-.445-.042c.111-.116.172-.265.172-.418s-.061-.302-.172-.418a.727.727 0 0 0-.487-.149h-.27v1.134h.27a.721.721 0 0 0 .487-.149zM11.713 1.933s5.019 1.706 4.913 4.174v4.175s-5.015-1.707-4.911-4.175l-.002-4.174zM21.097 9.306a7.367 7.367 0 0 1 3.189-1.058V6.941c-1.319.458-2.438 1.287-3.189 2.365z"/><path d="M20.527 9.699c.776-1.406 2.121-2.492 3.758-3.033V2.9s-7.148 2.43-6.997 5.945v5.945s.319-.109.82-.312c0-.19 0-.382.023-.574.148-1.632 1.01-3.144 2.396-4.204z"/><path d="M19.848 11.908a5.6 5.6 0 0 1 .25-1.217c-.863.915-1.386 2.051-1.495 3.248-.01.113-.016.226-.019.342a21.66 21.66 0 0 0 1.375-.652 5.535 5.535 0 0 1-.111-1.721zM20.132 11.929a5.301 5.301 0 0 0 .088 1.559c1.953-1.052 4.147-2.677 4.063-4.642v-.171c-1.395.141-2.701.69-3.716 1.563a5.361 5.361 0 0 0-.435 1.691z"/></symbol><symbol id="foster-company" viewBox="0 0 33 16"><path d="M5.104 4.885h-.001c-.931 0-1.686.68-1.686 1.52v.001c0 .839.755 1.52 1.686 1.52h.001c.931 0 1.686-.68 1.686-1.52v-.001c0-.839-.755-1.52-1.686-1.52zM17.546 4.399c-.003-1.166-.517-2.283-1.432-3.108S13.961.002 12.667 0c-1.293.002-2.533.466-3.448 1.291s-1.43 1.942-1.432 3.108v6.429s9.757-.98 9.759-6.428v-.001zM0 12.938c.002.811.361 1.589.997 2.162s1.498.897 2.398.899c.9-.002 1.761-.326 2.398-.899s.995-1.351.997-2.162V8.465S.001 9.147.001 12.937zm3.395.802c-.176 0-.348-.047-.494-.135s-.26-.213-.327-.36-.085-.308-.051-.463c.034-.155.119-.298.243-.41s.283-.188.455-.219c.172-.031.351-.015.514.046s.301.163.399.295a.745.745 0 0 1-.109 1.014c-.083.075-.181.134-.289.175s-.224.061-.341.061v-.003zM9.603 12.299v1.665H9.26v-1.665h.343zm.664.711v.268H9.51v-.268h.757zm.08-.711v.269H9.51v-.269h.837zm1.566.793v.079c0 .127-.017.24-.051.341s-.083.186-.145.257c-.062.07-.137.124-.224.161s-.182.056-.287.056c-.104 0-.2-.019-.287-.056s-.161-.091-.224-.161c-.063-.071-.112-.157-.147-.257s-.051-.214-.051-.341v-.079c0-.127.017-.241.051-.341s.083-.186.145-.257c.063-.071.138-.125.224-.162s.183-.056.287-.056c.105 0 .201.019.287.056s.162.091.224.162c.063.071.112.157.146.257s.053.213.053.341zm-.346.079v-.081c0-.088-.008-.166-.024-.233s-.04-.123-.071-.169-.069-.08-.114-.103c-.045-.024-.096-.035-.154-.035s-.109.012-.154.035c-.044.023-.082.057-.113.103s-.054.102-.07.169a1.012 1.012 0 0 0-.024.233v.081c0 .088.008.165.024.233s.04.124.071.17c.031.046.069.08.114.104s.096.035.154.035c.058 0 .109-.012.154-.035s.083-.058.113-.104c.031-.046.054-.103.07-.17s.024-.146.024-.233zm1.46.357c0-.03-.005-.056-.014-.08s-.024-.047-.048-.066c-.024-.021-.057-.041-.099-.061s-.098-.04-.166-.062c-.075-.024-.147-.052-.215-.082s-.127-.066-.178-.106c-.051-.041-.091-.089-.121-.143s-.043-.117-.043-.189c0-.069.015-.132.046-.189s.073-.106.128-.146c.055-.041.12-.073.194-.095s.158-.033.248-.033c.123 0 .23.022.321.066s.162.105.213.182a.468.468 0 0 1 .077.264h-.341c0-.049-.01-.091-.031-.128s-.05-.067-.091-.088a.328.328 0 0 0-.153-.032c-.059 0-.109.009-.149.027s-.069.042-.089.072a.176.176 0 0 0-.03.101c0 .028.007.054.021.077s.036.044.064.064.063.039.104.056c.041.018.089.035.143.051.091.027.17.058.239.093s.127.073.174.115a.417.417 0 0 1 .14.329.395.395 0 0 1-.164.339c-.053.04-.117.07-.191.09a.95.95 0 0 1-.492-.001.698.698 0 0 1-.218-.099c-.065-.044-.117-.101-.155-.169s-.058-.15-.058-.244h.344c0 .052.008.096.024.131s.038.065.067.087c.03.022.065.038.105.048s.086.015.135.015c.059 0 .108-.008.146-.025s.067-.04.086-.07a.184.184 0 0 0 .029-.101zm1.32-1.229v1.665h-.342v-1.665h.342zm.512 0v.269h-1.358v-.269h1.358zm1.313 1.397v.268h-.886v-.268h.886zm-.774-1.397v1.665h-.343v-1.665h.343zm.658.677v.261h-.771v-.261h.771zm.115-.677v.269h-.885v-.269h.885zm.201 0h.621c.127 0 .237.019.328.057s.163.095.213.169.074.167.074.276c0 .089-.015.166-.046.23s-.072.116-.127.159a.68.68 0 0 1-.191.101l-.109.057h-.54l-.002-.268h.401c.06 0 .11-.011.15-.032s.069-.051.089-.089a.27.27 0 0 0 .031-.133c0-.053-.01-.099-.03-.138s-.05-.069-.09-.089-.091-.031-.152-.031h-.278v1.396h-.343v-1.665zm.93 1.664-.38-.742.362-.002.384.728v.016h-.367zm1.801-.593h-.424v-.268h.424c.066 0 .119-.011.16-.032s.071-.053.09-.091c.019-.039.029-.083.029-.131s-.01-.096-.029-.138c-.019-.043-.049-.077-.09-.103s-.095-.039-.16-.039h-.305v1.396h-.343v-1.665h.648c.13 0 .242.024.335.071s.165.111.215.193a.53.53 0 0 1 .074.282c0 .107-.025.2-.074.279s-.121.139-.215.182a.795.795 0 0 1-.335.064zm1.978.326v.268h-.886v-.268h.886zm-.774-1.397v1.665h-.343v-1.665h.343zm.658.677v.261h-.771v-.261h.771zm.115-.677v.269h-.885v-.269h.885zm.968 0v1.665h-.342v-1.665h.342zm.512 0v.269h-1.358v-.269h1.358zm1.313 1.397v.268h-.886v-.268h.886zm-.774-1.397v1.665h-.343v-1.665h.343zm.658.677v.261h-.771v-.261h.771zm.115-.677v.269h-.885v-.269h.885zm.201 0h.621c.127 0 .237.019.328.057s.163.095.213.169c.05.075.074.167.074.276 0 .089-.015.166-.046.23s-.072.116-.127.159a.68.68 0 0 1-.191.101l-.109.057h-.54l-.002-.268h.401c.06 0 .11-.011.15-.032s.069-.051.089-.089a.27.27 0 0 0 .031-.133c0-.053-.01-.099-.03-.138s-.05-.069-.09-.089a.326.326 0 0 0-.152-.031h-.278v1.396h-.343v-1.665zm.931 1.664-.38-.742.362-.002.384.728v.016h-.367zm1.436-.435c0-.03-.005-.056-.014-.08s-.024-.047-.048-.066c-.024-.021-.057-.041-.099-.061s-.098-.04-.166-.062c-.075-.024-.147-.052-.215-.082s-.127-.066-.178-.106c-.051-.041-.091-.089-.121-.143s-.043-.117-.043-.189c0-.069.015-.132.046-.189s.073-.106.128-.146c.055-.041.12-.073.194-.095s.158-.033.248-.033c.123 0 .23.022.321.066s.162.105.213.182a.468.468 0 0 1 .077.264h-.341c0-.049-.01-.091-.031-.128s-.05-.067-.091-.088a.328.328 0 0 0-.153-.032c-.059 0-.109.009-.149.027s-.069.042-.089.072a.176.176 0 0 0-.03.101c0 .028.007.054.021.077s.036.044.064.064.063.039.104.056c.041.018.089.035.143.051.091.027.17.058.239.093s.127.073.174.115a.417.417 0 0 1 .14.329.395.395 0 0 1-.164.339c-.053.04-.117.07-.191.09a.95.95 0 0 1-.492-.001.698.698 0 0 1-.218-.099c-.065-.044-.117-.101-.155-.169s-.058-.15-.058-.244h.344c0 .052.008.096.024.131s.038.065.067.087c.03.022.065.038.105.048s.086.015.135.015c.059 0 .108-.008.146-.025s.067-.04.086-.07a.184.184 0 0 0 .029-.101z"/></symbol><symbol id="second-company" viewBox="0 0 12 16"><path d="M5.266.903c.071 0 .147.006.223.013l.022.002c.367.026.731.081 1.09.164V.201A6.384 6.384 0 0 0 5.476.022 9.017 9.017 0 0 0 5.021 0h-.132a9.191 9.191 0 0 0-2.257.291c-.84.21-1.646.537-2.395.974v8.737a9.722 9.722 0 0 1 2.283-.89 9.942 9.942 0 0 1 1.916-.294h.026c.108-.005.216-.009.328-.009v-.895c-.84.011-1.677.122-2.491.331-.301.078-.592.163-.866.257l-.311.106V1.795l.133-.064A8.682 8.682 0 0 1 4.519.906C4.643.9 4.767.897 4.89.897h.14c.065.002.129.003.194.007h.042zm1.55.901c.195.015.398.022.602.022a9.687 9.687 0 0 0 2.373-.304 9.802 9.802 0 0 0 2.282-.89v8.582a9.198 9.198 0 0 1-2.396.974 9.197 9.197 0 0 1-2.257.29 6.859 6.859 0 0 1-1.712-.202V1.639c.132.031.269.059.407.082.227.038.467.067.701.084zm4.368.066-.311.105c-.286.096-.575.182-.866.259-.845.217-1.714.329-2.587.332-.203 0-.39-.005-.571-.017l-.248-.016v7.008l.213.019c.198.017.402.026.607.026a8.243 8.243 0 0 0 2.037-.264 8.518 8.518 0 0 0 1.592-.572l.133-.064V1.871zM.842 12.988a.464.464 0 0 0-.346-.14.505.505 0 0 0-.356.14.509.509 0 0 0-.136.349v1.167a.545.545 0 0 0 .046.239c.028.06.067.113.117.156a.409.409 0 0 0 .16.083.64.64 0 0 0 .174.024.508.508 0 0 0 .344-.149.507.507 0 0 0 .139-.342v-.131H.679v.104a.262.262 0 0 1-.018.104.196.196 0 0 1-.044.066.197.197 0 0 1-.064.034.2.2 0 0 1-.064.011.157.157 0 0 1-.143-.063.268.268 0 0 1-.04-.156v-1.088a.374.374 0 0 1 .037-.174.156.156 0 0 1 .15-.071.161.161 0 0 1 .136.066c.034.045.052.1.051.156v.101h.302v-.119a.546.546 0 0 0-.139-.368zM2.655 12.975a.539.539 0 0 0-.529-.095.535.535 0 0 0-.161.095.46.46 0 0 0-.118.164.53.53 0 0 0-.044.226v1.12a.544.544 0 0 0 .044.229c.028.06.068.114.118.156a.487.487 0 0 0 .161.099.538.538 0 0 0 .364 0 .504.504 0 0 0 .28-.255.544.544 0 0 0 .044-.229v-1.12a.507.507 0 0 0-.159-.39zm-.142 1.509a.202.202 0 0 1-.061.162c-.04.034-.091.052-.144.052s-.103-.019-.144-.052a.204.204 0 0 1-.061-.162v-1.12a.202.202 0 0 1 .061-.162c.04-.034.091-.052.144-.052s.103.019.144.052a.204.204 0 0 1 .061.162v1.12zM5.036 14.984v-2.12h-.293l-.385 1.122h-.005l-.388-1.122h-.29v2.12h.303v-1.289h.005l.297.912h.151l.299-.912h.005v1.289h.303zM6.756 13.013a.427.427 0 0 0-.171-.116.683.683 0 0 0-.22-.033h-.45v2.12h.302v-.828h.156a.557.557 0 0 0 .272-.058.438.438 0 0 0 .166-.162.505.505 0 0 0 .069-.185c.012-.08.017-.16.016-.241a1.186 1.186 0 0 0-.03-.303.454.454 0 0 0-.111-.195zm-.155.647a.263.263 0 0 1-.028.11.165.165 0 0 1-.078.074.318.318 0 0 1-.142.027h-.138v-.721h.156a.288.288 0 0 1 .136.027.173.173 0 0 1 .071.078.282.282 0 0 1 .026.118v.141c0 .049.003.1 0 .146h-.003zM8.187 12.865h-.248l-.467 2.12h.302l.089-.455h.412l.089.455h.302l-.479-2.12zm-.279 1.375.149-.768h.005l.148.768h-.302zM10.138 14.142h-.005l-.456-1.277h-.29v2.12h.302V13.71h.006l.462 1.275h.284v-2.12h-.302v1.277zM11.984 12.865l-.243.843h-.006l-.243-.843h-.32l.415 1.224v.896h.302v-.896l.415-1.224h-.32zM0 15.583h.146v.408h.099v-.408H.39v-.084H.001v.084zM1.224 15.499l-.191.492h.105l.04-.112h.196l.042.112h.107l-.195-.492h-.105zm-.016.298.067-.182.067.182h-.134zM2.433 15.81h.114v.063a.183.183 0 0 1-.117.041.125.125 0 0 1-.104-.047.209.209 0 0 1-.037-.128c0-.11.047-.164.142-.164.025-.002.05.004.07.018s.035.036.041.06l.097-.019c-.021-.096-.09-.145-.209-.145a.248.248 0 0 0-.172.063c-.025.024-.044.054-.056.087s-.017.068-.015.103a.272.272 0 0 0 .063.185.24.24 0 0 0 .187.072.299.299 0 0 0 .209-.078v-.194h-.213v.083zM3.668 15.499h-.1v.492h.345v-.084h-.245v-.408zM4.713 15.499h-.1v.492h.1v-.492zM5.734 15.828l-.202-.329h-.097v.492h.093v-.322l.198.322h.099v-.492h-.091v.329zM6.657 15.775h.245v-.084h-.245v-.108h.264v-.084h-.364v.492h.374v-.084h-.274v-.133zM8.896 15.693h-.194v-.194h-.099v.492h.099v-.215h.194v.215h.099v-.492h-.099v.194zM9.825 15.775h.246v-.084h-.246v-.108h.265v-.084h-.364v.492h.373v-.084h-.274v-.133zM11.084 15.775c.086-.013.129-.059.129-.137.002-.021-.001-.042-.009-.061s-.022-.036-.039-.048a.287.287 0 0 0-.144-.029h-.209v.492h.099v-.206h.019a.128.128 0 0 1 .061.011.1.1 0 0 1 .035.036l.107.156h.118l-.06-.096a.352.352 0 0 0-.109-.118zm-.1-.068h-.073v-.124h.078a.242.242 0 0 1 .1.012c.007.006.013.014.017.023s.005.018.005.028c0 .01-.003.019-.008.027s-.011.016-.019.021a.286.286 0 0 1-.1.012zM12.034 15.775h.245v-.084h-.245v-.108h.265v-.084h-.364v.492h.374v-.084h-.274v-.133z"/></symbol><symbol id="tag-company" viewBox="0 0 30 16"><path d="M15.294 7.841a.84.84 0 0 1-.173-.569v-.825c0-.253.057-.445.172-.577s.312-.197.591-.196c.263 0 .449.056.559.168.12.143.179.317.165.494v.194h-.47v-.196a.95.95 0 0 0-.014-.192.183.183 0 0 0-.067-.114.264.264 0 0 0-.17-.044.292.292 0 0 0-.179.047.223.223 0 0 0-.078.126.933.933 0 0 0-.018.204v1.001a.513.513 0 0 0 .06.281c.023.03.056.053.094.068s.08.02.121.016c.06.004.12-.012.166-.045a.204.204 0 0 0 .07-.122c.011-.066.016-.134.015-.201v-.203h.47v.186a.759.759 0 0 1-.162.519c-.108.123-.292.184-.562.184s-.475-.065-.59-.201zM17.25 7.849c-.119-.128-.178-.316-.178-.563v-.868c0-.245.059-.431.178-.557s.317-.189.595-.188c.276 0 .474.063.592.188s.179.311.179.557v.868c0 .245-.06.433-.181.562s-.317.194-.59.194-.476-.065-.595-.193zm.815-.208a.474.474 0 0 0 .056-.257V6.321a.484.484 0 0 0-.055-.252c-.024-.03-.057-.054-.096-.069s-.082-.02-.124-.015c-.042-.005-.085 0-.124.015s-.072.039-.097.069a.457.457 0 0 0-.056.252v1.068a.474.474 0 0 0 .056.257c.027.027.061.049.099.064a.33.33 0 0 0 .242 0 .292.292 0 0 0 .099-.064v-.005zM19.182 5.699h.506l.38 1.601.389-1.601h.492l.05 2.312h-.364l-.039-1.607-.376 1.607h-.292l-.389-1.612-.036 1.612h-.368l.046-2.312zM21.567 5.699h.788c.454 0 .681.219.681.656 0 .419-.239.628-.717.628h-.268V8.01h-.486l.003-2.312zm.673.988c.048.005.097.001.143-.011s.089-.034.124-.062a.375.375 0 0 0 .07-.261.71.71 0 0 0-.023-.21c-.007-.023-.019-.045-.036-.063s-.038-.035-.061-.047a.5.5 0 0 0-.217-.037h-.189v.691h.189zM23.737 5.699h.522l.536 2.312h-.453l-.106-.533h-.466l-.109.533h-.46l.536-2.312zm.446 1.511-.182-.97-.182.97h.364zM25.228 5.699h.34l.652 1.319V5.699h.404v2.312H26.3l-.656-1.377v1.377h-.417l.001-2.312zM27.569 7.129l-.542-1.427h.456l.331.917.31-.917h.446l-.535 1.427v.881h-.467v-.881zM16.045 9.021v.121h-.397v.939h-.166v-.939h-.399v-.121h.962zM17.289 10.081h-.128a.056.056 0 0 1-.036-.01.053.053 0 0 1-.021-.024l-.115-.252h-.551l-.115.252a.072.072 0 0 1-.017.029.056.056 0 0 1-.036.01h-.128l.486-1.06h.169l.492 1.056zm-.805-.393h.459l-.195-.431a.919.919 0 0 1-.036-.1l-.018.056-.017.044-.193.431zM18.128 9.977h.091a.529.529 0 0 0 .078-.013.556.556 0 0 0 .07-.019l.065-.026v-.238h-.195c-.005 0-.01 0-.014-.002s-.009-.004-.012-.007c-.003-.002-.006-.005-.007-.009l-.002-.011v-.081h.377v.406a.683.683 0 0 1-.205.086.972.972 0 0 1-.264.029.748.748 0 0 1-.245-.039.596.596 0 0 1-.195-.111.496.496 0 0 1-.17-.388.496.496 0 0 1 .169-.39.574.574 0 0 1 .195-.11.818.818 0 0 1 .261-.039.752.752 0 0 1 .251.036c.034.011.067.025.097.042s.058.035.085.055l-.047.065c-.004.006-.009.011-.016.015s-.014.005-.022.006a.061.061 0 0 1-.03-.008.764.764 0 0 1-.048-.025.476.476 0 0 0-.155-.053.732.732 0 0 0-.312.02.366.366 0 0 0-.233.216.5.5 0 0 0 0 .353.421.421 0 0 0 .239.217.567.567 0 0 0 .193.021zM19.678 9.96h.531v.121h-.694v-1.06h.166l-.004.939zM20.762 10.081h-.166v-1.06h.166v1.06zM21.381 9.026a.07.07 0 0 1 .025.019l.711.799v-.827h.145v1.064h-.084a.074.074 0 0 1-.036-.006.086.086 0 0 1-.026-.02l-.71-.798v.825h-.139v-1.06h.087a.08.08 0 0 1 .027.005zM23.487 9.021v.117h-.589v.35h.478V9.6h-.478v.362h.589v.117h-.761V9.021h.761zM6.056 2.474l7.386 1.81v6.342L6.056 8.817V2.475zm-.474-.541v7.191l8.333 2.042v-7.19L5.582 1.933z"/><path d="m10.048 14.505-8.334-2.044v-7.19l8.334 2.043v7.191zM5.72 2.392l7.29 1.787-3.1 2.676-7.291-1.788L5.72 2.392zm-.138-.459L1.714 5.27l8.334 2.043 3.867-3.337-8.333-2.043zM10.517 14.1l3.398-2.933-3.398-.833V14.1z"/></symbol><symbol id="third-company" viewBox="0 0 17 16"><path d="M2.657 15.697c.006 0 .012.001.018.004s.011.005.015.009l.086.081a.715.715 0 0 1-.242.154.951.951 0 0 1-.344.055.923.923 0 0 1-.323-.052.65.65 0 0 1-.4-.37.738.738 0 0 1-.055-.288.671.671 0 0 1 .226-.514.794.794 0 0 1 .259-.146c.106-.035.219-.053.333-.052a.916.916 0 0 1 .309.047.862.862 0 0 1 .232.13l-.072.087a.093.093 0 0 1-.018.016c-.009.005-.019.007-.029.006s-.022-.004-.031-.009l-.039-.023-.054-.029a.772.772 0 0 0-.072-.029.683.683 0 0 0-.226-.032.689.689 0 0 0-.239.039.501.501 0 0 0-.309.282.582.582 0 0 0-.044.228.602.602 0 0 0 .044.232.501.501 0 0 0 .299.279c.07.025.146.037.222.037a.95.95 0 0 0 .131-.007.504.504 0 0 0 .284-.119.073.073 0 0 1 .041-.015zM5.146 15.29a.69.69 0 0 1-.058.286c-.035.083-.09.159-.162.222s-.159.113-.255.146a1.062 1.062 0 0 1-.655 0 .756.756 0 0 1-.253-.146.649.649 0 0 1-.164-.225.73.73 0 0 1 0-.573.662.662 0 0 1 .417-.366c.211-.07.444-.07.655 0a.76.76 0 0 1 .254.146.661.661 0 0 1 .221.51zm-.226 0a.589.589 0 0 0-.041-.23.465.465 0 0 0-.115-.172.539.539 0 0 0-.182-.109.774.774 0 0 0-.476 0 .5.5 0 0 0-.182.109.456.456 0 0 0-.116.172.662.662 0 0 0 0 .46.468.468 0 0 0 .298.28.789.789 0 0 0 .476 0 .473.473 0 0 0 .297-.28.589.589 0 0 0 .041-.23zM6.844 15.531l.023.052.025-.052.028-.051.55-.855c.011-.015.02-.024.031-.027a.173.173 0 0 1 .045-.005h.163v1.391h-.193v-1.065a.384.384 0 0 1 0-.048l-.554.867c-.007.013-.018.024-.032.032s-.031.012-.047.012h-.031c-.017 0-.033-.004-.047-.011s-.025-.019-.032-.032l-.57-.872v1.116h-.186v-1.388h.163a.135.135 0 0 1 .045.005.061.061 0 0 1 .03.027l.562.856c.011.016.02.032.028.05zM8.915 15.462v.521H8.7v-1.389h.48a1.09 1.09 0 0 1 .268.03c.07.017.134.046.19.087a.36.36 0 0 1 .108.136.424.424 0 0 1-.003.356.395.395 0 0 1-.116.139.547.547 0 0 1-.191.092.909.909 0 0 1-.26.032l-.261-.004zm0-.149h.261a.622.622 0 0 0 .167-.021.361.361 0 0 0 .121-.06.266.266 0 0 0 .099-.209c.003-.039-.005-.077-.022-.113s-.042-.068-.075-.095a.475.475 0 0 0-.29-.075h-.261v.572zM11.811 15.985h-.17a.076.076 0 0 1-.047-.013.094.094 0 0 1-.028-.032l-.146-.336h-.736l-.152.336a.08.08 0 0 1-.075.045h-.17l.646-1.391h.224l.655 1.391zm-1.067-.516h.608l-.256-.566a.793.793 0 0 1-.048-.131l-.025.073a.716.716 0 0 1-.024.059l-.254.565zM12.741 14.601a.09.09 0 0 1 .032.025l.943 1.048v-1.08h.193v1.391h-.108c-.015 0-.03-.002-.044-.008s-.025-.015-.034-.026l-.941-1.047a.384.384 0 0 1 0 .048v1.033h-.193v-1.391h.114c.013 0 .027.002.039.006zM15.497 15.432v.552h-.215v-.552l-.596-.838h.193a.072.072 0 0 1 .046.012.12.12 0 0 1 .029.031l.373.54c.015.023.028.044.039.064s.019.04.027.059l.028-.06a.46.46 0 0 1 .037-.064l.367-.544a.128.128 0 0 1 .028-.029.074.074 0 0 1 .046-.014h.195l-.597.841zM6.737 12.26c.094.01.188.018.284.026 1.454-.556 2.683-1.465 3.535-2.614s1.289-2.488 1.255-3.848l-1.602-1.369c.326 1.448.173 2.945-.44 4.324s-1.663 2.584-3.033 3.481z"/><path d="m6.165 12.197.043.007c1.463-.894 2.579-2.143 3.203-3.585s.727-3.011.296-4.503L7.425 2.167c.923 1.602 1.294 3.395 1.071 5.171s-1.032 3.461-2.331 4.859zM13.902 7.431c-.388 1.494-1.329 2.842-2.684 3.843a8.564 8.564 0 0 1-1.275.782c1.104-.277 2.118-.767 2.965-1.432s1.504-1.487 1.92-2.404l-.925-.79z"/><path d="m13.539 7.211-1.317-1.126c-.025 1.283-.452 2.537-1.237 3.632s-1.898 1.99-3.224 2.592h.006c.296 0 .591-.015.884-.045 1.24-.432 2.335-1.12 3.187-2.002s1.437-1.93 1.7-3.052zM6.356 1.345 4.784 0C3.379.464 2.171 1.279 1.317 2.34S.004 4.656 0 5.943c.005 1.422.565 2.802 1.592 3.921s2.461 1.914 4.075 2.259c1.441-1.501 2.285-3.355 2.409-5.293s-.479-3.86-1.721-5.486zM17.171 7.004c-.006-1.687-.793-3.304-2.189-4.497S11.693.642 9.719.637a8.498 8.498 0 0 0-2.668.424l9.623 8.222a5.514 5.514 0 0 0 .498-2.279z"/></symbol><symbol id="ya-company" viewBox="0 0 14 16"><path d="m2.043 0 2.386 2.273L.001 2.27v11.027h11.574V9.081l2.383 2.27V0H2.043zm9.427 8.814L4.706 2.37h6.764v6.444zm-2.1 2.87H1.832V4.268h.533v6.914H9.37v.502zM3.335 15.34l.281-.578h.231l-.407.765v.445h-.21v-.445l-.407-.765h.232l.281.578zm1.035-.578h.05l.457 1.21h-.219l-.098-.283h-.468l-.098.283h-.219l.455-1.21h.14zm-.221.762h.354l-.177-.513-.177.513zm1.462-.201c-.042.03-.079.059-.112.089-.035.032-.063.067-.084.105s-.031.08-.031.13c0 .066.016.125.047.177s.078.092.136.121a.558.558 0 0 0 .397.012.454.454 0 0 0 .124-.068l.07.083h.232l-.177-.209a.522.522 0 0 0 .088-.199.808.808 0 0 0 .017-.167h-.173c0 .065-.01.124-.031.177-.006.017-.014.033-.021.049l-.24-.283.084-.061c.032-.023.06-.048.085-.074s.043-.055.057-.086a.26.26 0 0 0 .021-.105c0-.048-.012-.093-.037-.133s-.058-.073-.103-.097a.317.317 0 0 0-.159-.037c-.064 0-.119.012-.167.037s-.085.059-.111.105a.325.325 0 0 0-.013.283.59.59 0 0 0 .072.119l.026.034zm.099.122.269.317a.303.303 0 0 1-.062.038.302.302 0 0 1-.134.031c-.043 0-.079-.008-.109-.025s-.052-.04-.067-.069a.205.205 0 0 1-.015-.144.255.255 0 0 1 .027-.06.298.298 0 0 1 .066-.069l.025-.018zm.048-.221-.014-.018c-.022-.029-.04-.056-.052-.082s-.019-.052-.019-.077c0-.026.005-.05.014-.071s.025-.039.044-.052a.124.124 0 0 1 .071-.02c.04 0 .072.012.094.037s.033.051.033.08c0 .034-.007.062-.022.085s-.04.045-.075.068l-.074.05zm2.117.354c-.007.079-.029.15-.066.212s-.091.11-.159.145-.151.053-.249.053c-.075 0-.142-.013-.202-.04s-.111-.065-.154-.115-.075-.11-.098-.18-.033-.149-.033-.236v-.101c0-.087.011-.166.034-.236s.057-.13.1-.18a.442.442 0 0 1 .36-.156c.096 0 .178.018.244.053s.118.085.155.147c.037.063.06.134.068.215h-.208c-.006-.052-.018-.097-.037-.134s-.045-.065-.081-.085a.29.29 0 0 0-.141-.03c-.048 0-.089.009-.125.027s-.065.044-.089.078c-.024.034-.042.077-.054.127s-.017.107-.017.171v.102c0 .061.005.116.016.166s.028.092.05.127c.023.035.052.063.086.082s.077.029.126.029c.059 0 .107-.009.144-.028s.065-.046.084-.082a.385.385 0 0 0 .038-.134h.208zm1.155-.177v-.066c0-.091-.012-.173-.037-.245s-.058-.134-.102-.185c-.044-.052-.097-.091-.159-.117a.523.523 0 0 0-.408 0 .447.447 0 0 0-.159.117c-.044.051-.079.113-.103.185s-.037.154-.037.245v.066c0 .091.012.173.037.246s.06.134.105.185a.456.456 0 0 0 .363.157c.075 0 .143-.013.204-.04s.114-.066.158-.117c.044-.051.078-.113.102-.185s.036-.155.036-.246zm-.209-.069v.068c0 .068-.007.127-.02.18s-.032.096-.057.132c-.025.035-.055.062-.091.081s-.077.027-.124.027a.255.255 0 0 1-.216-.108c-.025-.036-.045-.08-.058-.132s-.02-.112-.02-.18v-.068c0-.068.007-.127.02-.179s.032-.096.057-.13a.25.25 0 0 1 .215-.107c.046 0 .087.009.124.027.037.018.067.044.092.08s.045.078.057.13c.013.052.02.111.02.179z"/></symbol><symbol id="facebook-icon" viewBox="0 0 16 16"><path d="M10.665 2.657h1.461V.113A18.755 18.755 0 0 0 9.998 0C7.892 0 6.449 1.325 6.449 3.759V6H4.125v2.844h2.324V16h2.849V8.845h2.23l.354-2.844H9.297V4.042c.001-.822.222-1.385 1.367-1.385z"/></symbol><symbol id="instagram-icon" viewBox="0 0 16 16"><path d="M15.984 4.704c-.037-.85-.175-1.435-.372-1.941a3.904 3.904 0 0 0-.925-1.419 3.944 3.944 0 0 0-1.416-.922C12.762.225 12.18.088 11.33.05 10.473.009 10.202 0 8.029 0S5.585.009 4.731.047c-.85.037-1.435.175-1.941.372a3.904 3.904 0 0 0-1.419.925c-.406.4-.722.885-.922 1.416-.197.51-.334 1.091-.372 1.941-.041.856-.05 1.128-.05 3.301s.009 2.444.047 3.298c.037.85.175 1.435.372 1.941.203.538.519 1.019.925 1.419.4.406.885.722 1.416.922.51.197 1.091.335 1.941.372.853.038 1.125.047 3.298.047s2.444-.009 3.298-.047c.85-.037 1.435-.175 1.941-.372a4.095 4.095 0 0 0 2.341-2.341c.197-.509.334-1.091.372-1.941.038-.853.047-1.125.047-3.298s-.003-2.444-.041-3.298zm-1.441 6.532c-.034.781-.166 1.203-.275 1.485a2.655 2.655 0 0 1-1.519 1.519c-.281.109-.706.241-1.485.275-.844.038-1.097.047-3.232.047s-2.391-.009-3.232-.047c-.781-.034-1.203-.166-1.485-.275a2.453 2.453 0 0 1-.919-.597 2.477 2.477 0 0 1-.597-.919c-.109-.281-.241-.706-.275-1.485-.038-.844-.047-1.097-.047-3.232s.009-2.391.047-3.232c.034-.781.166-1.203.275-1.485.128-.347.331-.663.6-.919.259-.266.572-.469.919-.597.281-.109.706-.241 1.485-.275.844-.037 1.097-.047 3.232-.047 2.138 0 2.391.009 3.232.047.781.034 1.203.166 1.485.275.347.128.663.331.919.597.266.259.469.572.597.919.109.281.241.706.275 1.485.037.844.047 1.097.047 3.232s-.009 2.385-.047 3.229z"/><path d="M8.03 3.891a4.111 4.111 0 0 0 0 8.22 4.111 4.111 0 0 0 0-8.22zm0 6.777a2.667 2.667 0 1 1 .001-5.333 2.667 2.667 0 0 1-.001 5.333zM13.262 3.729a.96.96 0 1 1-1.92 0 .96.96 0 0 1 1.92 0z"/></symbol><symbol id="linkedin-icon" viewBox="0 0 16 16"><path d="M15.996 16v-.001H16v-5.868c0-2.871-.618-5.082-3.974-5.082-1.613 0-2.696.885-3.138 1.725h-.047V5.317H5.659v10.682h3.313V10.71c0-1.393.264-2.739 1.989-2.739 1.699 0 1.725 1.589 1.725 2.829v5.201h3.31zM.264 5.318h3.317V16H.264V5.318zM1.921 0C.86 0 0 .861 0 1.921S.861 3.86 1.921 3.86c1.061 0 1.921-.879 1.921-1.939S2.981 0 1.921 0z"/></symbol><symbol id="twitter-icon" viewBox="0 0 18 16"><path d="M18.286 2.33a7.83 7.83 0 0 1-2.16.592A3.728 3.728 0 0 0 17.775.85a7.492 7.492 0 0 1-2.377.907 3.748 3.748 0 0 0-6.484 2.564c0 .297.025.583.087.855a10.612 10.612 0 0 1-7.727-3.921A3.777 3.777 0 0 0 .761 3.15c0 1.298.669 2.449 1.665 3.115a3.694 3.694 0 0 1-1.694-.462v.041a3.764 3.764 0 0 0 3.003 3.683 3.76 3.76 0 0 1-.983.123c-.24 0-.482-.014-.71-.064a3.783 3.783 0 0 0 3.503 2.611 7.53 7.53 0 0 1-4.648 1.599c-.307 0-.602-.014-.897-.051a10.555 10.555 0 0 0 5.751 1.682c6.898 0 10.67-5.714 10.67-10.667 0-.166-.006-.326-.014-.485a7.48 7.48 0 0 0 1.879-1.946z"/></symbol></defs></svg>